# xmcd
#
# Track frame offsets: 
#        150
#        65350
#        87142
#        115590
#        138350
#        156195
#        178035
#        196600
#        214092
#        238742
#
# Disc length: 3436 seconds
#
# Revision: 0
# Processed by: cddbd v1.5.2PL0 Copyright (c) Steve Scherf et al.
# Submitted via: ExactAudioCopy v1.0b3
#
DISCID=7f0d6a0a
DTITLE=Ultimate - The Best Of Ultimate - Love Is The Ultimate
DYEAR=1996
DGENRE=Disco
TTITLE0=Love Is The Ultimate - Dancing In The Night - Touch Me Baby
TTITLE1=Ritmo De Brazil
TTITLE2=Music In My Heart
TTITLE3=Take Me To Chinatown
TTITLE4=This Time I'm In Love
TTITLE5=Feel So Fine
TTITLE6=Get To The Top
TTITLE7=Secret Agent Man
TTITLE8=Back Together
TTITLE9=Now And Forever
EXTD=
EXTT0=
EXTT1=
EXTT2=
EXTT3=
EXTT4=
EXTT5=
EXTT6=
EXTT7=
EXTT8=
EXTT9=
PLAYORDER=
